<svg version="1.1" baseProfile="full" width="320" height="320" xmlns="http://www.w3.org/2000/svg">

    <rect width="100%" height="100%" fill="white" />

    <!-- <circle cx="150" cy="100" r="80" fill="green" /> -->

    <!-- <text x="150" y="120" font-size="50" text-anchor="middle" fill="white">岑焯琳</text> -->

    <!-- <rect x="150" y="150" width="100" height="100" fill="green" /> -->

    <!-- <path d="M 150 150 h 90 v 90 h -90 v -90 Z" rx="10" ry="10" fill="transparent"
        style="stroke:rgb(255,0,0);stroke-width:10;stroke-linecap:round" /> -->

    <!-- <path d="M 150 150 H 50" /> -->

    <!-- Points -->
    <!-- <circle cx="280" cy="80" r="2" fill="yellow" /> -->

    <!-- <line x1="50" x2="100" y1="50" y2="100" fill="green" /> -->

    <!-- <line x1="20" y1="20" x2="200" y2="200" style="stroke:rgb(255,0,0);stroke-width:10;stroke-linecap:round" /> -->

    <!-- <path d="M 80 80
           A 45 45, 0, 0, 0, 125 125
           L 125 80 Z" fill="green" />
    <path d="M 230 80
           A 45 45, 0, 1, 0, 275 125
           L 275 80 Z" fill="red" />
    <path d="M 80 230
           A 45 45, 0, 0, 1, 125 275
           L 125 230 Z" fill="purple" />
    <path d="M 230 230
           A 45 45, 0, 1, 1, 275 275
           L 275 230 Z" fill="blue" /> -->

    <circle cx="160" cy="160" r="5" fill="orange" />
        
    <!-- <circle cx="100" cy="50" r="40" stroke="black" stroke-width="2" fill="red"/>  -->

    <path d="M 160 160
           L 298.564 80 
           L 160 0
           L 21.436 80 Z" fill="#0ec10e"/>

    <path d="M 160 160
           L 298.564 80 
           L 298.564 240
           L 160 320 Z" fill="#00ff62"/>

    <path d="M 160 160
           L 160 320  
           L 21.436 240
           L 21.436 80 Z" fill="#5d9e13"/>                      

</svg>